<svg xmlns="http://www.w3.org/2000/svg" width="14" height="15" viewBox="0 0 14 15" fill="none">
  <path d="M10 1.40625V2.34375H13.5C13.6326 2.34375 13.7598 2.39314 13.8536 2.48104C13.9473 2.56895 14 2.68818 14 2.8125C14 2.93682 13.9473 3.05605 13.8536 3.14396C13.7598 3.23186 13.6326 3.28125 13.5 3.28125H12.962L12.109 13.275C12.0688 13.7449 11.8412 14.1833 11.4717 14.503C11.1022 14.8226 10.6178 15.0001 10.115 15H3.885C3.38219 15.0001 2.8978 14.8226 2.52827 14.503C2.15875 14.1833 1.93122 13.7449 1.891 13.275L1.038 3.28125H0.5C0.367392 3.28125 0.240215 3.23186 0.146447 3.14396C0.0526784 3.05605 0 2.93682 0 2.8125C0 2.68818 0.0526784 2.56895 0.146447 2.48104C0.240215 2.39314 0.367392 2.34375 0.5 2.34375H4V1.40625C4 1.03329 4.15803 0.675604 4.43934 0.411881C4.72064 0.148158 5.10218 0 5.5 0L8.5 0C8.89782 0 9.27936 0.148158 9.56066 0.411881C9.84197 0.675604 10 1.03329 10 1.40625ZM5 1.40625V2.34375H9V1.40625C9 1.28193 8.94732 1.1627 8.85355 1.07479C8.75979 0.986886 8.63261 0.9375 8.5 0.9375H5.5C5.36739 0.9375 5.24021 0.986886 5.14645 1.07479C5.05268 1.1627 5 1.28193 5 1.40625ZM3.5 4.71469L4 12.6834C4.00267 12.7457 4.01857 12.8069 4.04676 12.8634C4.07495 12.9198 4.11488 12.9704 4.16419 13.0123C4.21351 13.0541 4.27123 13.0863 4.33397 13.1069C4.39672 13.1276 4.46322 13.1363 4.5296 13.1325C4.59598 13.1288 4.6609 13.1127 4.72055 13.0851C4.7802 13.0576 4.8334 13.0191 4.87701 12.9721C4.92063 12.925 4.9538 12.8703 4.97457 12.8111C4.99535 12.7518 5.00331 12.6893 4.998 12.6272L4.498 4.65844C4.49533 4.59615 4.47943 4.53498 4.45124 4.47852C4.42305 4.42205 4.38313 4.37143 4.33381 4.32961C4.28449 4.28779 4.22677 4.25562 4.16403 4.23497C4.10128 4.21431 4.03478 4.2056 3.9684 4.20935C3.90202 4.21309 3.8371 4.2292 3.77745 4.25675C3.7178 4.2843 3.6646 4.32273 3.62099 4.36979C3.57737 4.41685 3.5442 4.47159 3.52343 4.53081C3.50265 4.59003 3.49469 4.65254 3.5 4.71469ZM10.03 4.21969C9.89767 4.21252 9.76771 4.2549 9.6687 4.33753C9.56969 4.42015 9.50973 4.53626 9.502 4.66031L9.002 12.6291C8.99771 12.7513 9.04453 12.8702 9.13247 12.9605C9.22041 13.0508 9.34251 13.1054 9.47272 13.1124C9.60293 13.1195 9.73095 13.0787 9.82945 12.9985C9.92796 12.9184 9.98916 12.8053 10 12.6834L10.5 4.71469C10.5076 4.59063 10.4624 4.46879 10.3743 4.37597C10.2862 4.28315 10.1623 4.22694 10.03 4.21969ZM7 4.21875C6.86739 4.21875 6.74022 4.26814 6.64645 4.35604C6.55268 4.44395 6.5 4.56318 6.5 4.6875V12.6562C6.5 12.7806 6.55268 12.8998 6.64645 12.9877C6.74022 13.0756 6.86739 13.125 7 13.125C7.13261 13.125 7.25979 13.0756 7.35355 12.9877C7.44732 12.8998 7.5 12.7806 7.5 12.6562V4.6875C7.5 4.56318 7.44732 4.44395 7.35355 4.35604C7.25979 4.26814 7.13261 4.21875 7 4.21875Z" fill="#555555"/>
</svg>